<svg xmlns="http://www.w3.org/2000/svg" width="152" height="152" fill="none" viewBox="0 0 152 152"><path fill="none" d="M0 0h152v152H0z"/><path fill="#eee" d="M0 0h152v152H0z"/><path fill="#111" d="M36.302 95.837a18.56 18.56 0 0 1-3.254-11.806V66.969a18.85 18.85 0 0 1 3.208-11.92q3.231-4.071 11.04-4.049 7.81.023 10.577 3.572a15.06 15.06 0 0 1 3.091 10.214v4.003h-9.623v-4.345a22 22 0 0 0-.302-3.412 3.8 3.8 0 0 0-1.093-2.161 3.7 3.7 0 0 0-1.25-.684 3.7 3.7 0 0 0-1.423-.158c-.69-.1-1.394.01-2.018.315a3.36 3.36 0 0 0-1.468 1.392 12.2 12.2 0 0 0-.79 5.004v21.657c-.107 1.714.204 3.43.906 5.004a3.4 3.4 0 0 0 1.432 1.323 3.5 3.5 0 0 0 1.938.338 3.2 3.2 0 0 0 1.906-.326 3.1 3.1 0 0 0 1.349-1.358c.562-1.6.806-3.291.72-4.981v-4.55h9.623v3.935a16.23 16.23 0 0 1-2.859 10.487c-2.045 2.503-5.578 3.731-10.6 3.731-5.02 0-8.948-1.365-11.11-4.163M73.468 52h11.135L94 99h-9.256l-1.668-10.385h-7.8l-1.879 10.318H64zm8.574 30.707-2.96-18.89-2.936 18.89zM100.556 59.083H93V52h25v7.083h-7.463V99h-10.004z"/></svg>