<svg xmlns="http://www.w3.org/2000/svg" fill="none" viewBox="0 0 174 50"><path d="M0 0h174v50h-174z"/><path d="M0 0h60v50h-60z"/><path fill="#fdc305" d="M51.2 19.05a22.3 22.3 0 0 0-6.88-9.13 21.67 21.67 0 0 0-10.42-4.41 21.5 21.5 0 0 0-11.2 1.47 21.95 21.95 0 0 0-9 6.96 22.6 22.6 0 0 0-4.4 10.6 22.76 22.76 0 0 0 1.37 11.44 22.3 22.3 0 0 0 6.77 9.22 21.7 21.7 0 0 0 10.36 4.56c-.5-1.82-1-3.84-1.44-5.98 1.29.86 2.65 1.6 4.07 2.23 0 0 .1 1.88.24 3.99a21.7 21.7 0 0 0 4.55-.41 1.9 1.9 0 0 1 0-.67c.25-1.63.94-4.57 1.07-6.46a13.2 13.2 0 0 0 2.48-3.24l-.05.39c-.47 3.71-1.45 7.68-2.05 8.78a4.9 4.9 0 0 1-.71 1 21.75 21.75 0 0 0 8.5-4.15 22.3 22.3 0 0 0 6-7.42 22.77 22.77 0 0 0 .75-18.77m-1.26 3.3c-.38.38-1.15.64-1.28-.5a31 31 0 0 1-.16-1.93s-1.65-2.99-2.27-3.02-4.99 3.02-6.14 4.36c-1 1.12-1.2 1.05-1.2 3.03 0 1.49.19 7.12.09 11.43l-6.97 1.9a54 54 0 0 1-6.67 1.5l-.86-5.09h-.12l-2.2-11.49s-3.25-1.26-4.45-1.6a3.16 3.16 0 0 0-1.8-.23 3.2 3.2 0 0 0-1.62.78 4.4 4.4 0 0 0-1.1 1.52 4.5 4.5 0 0 0-.38 1.84c.18.4.32.83.4 1.27.05.42-1.02.37-1.7.37s-.79-1.25-.25-2.73a19.9 19.9 0 0 1 1.56-3.26 10.4 10.4 0 0 1 1.77-2.52s.12-.3 1.07-.21c.95.09 6.22.37 6.22.37l.04-1.98a120 120 0 0 1 17.31-1.17v1.6a19 19 0 0 1 6.96-1.74.77.77 0 0 1 .66.34c.3.37 2.06 2.61 2.27 2.94a25 25 0 0 1 1.56 2.61 5.5 5.5 0 0 1-.74 1.61z"/><path fill="#f06351" d="m48.28 17.02.86 1.12a25 25 0 0 1 1.56 2.62 5.5 5.5 0 0 1-.73 1.55c-.38.38-1.16.63-1.28-.5s-.18-1.89-.18-1.89-1.65-2.99-2.27-3.02-4.99 3.02-6.14 4.36c-1 1.12-1.2 1.04-1.2 3.03 0 1.3.15 5.8.11 9.8 1.55.17 3.83.6 4.51 1.63 0 0-.25-6.26 6.68-2.98 0 0 .24-8.54 9.8-6.35a37.5 37.5 0 0 0-11.72-9.37m-9-2.03a80.5 80.5 0 0 0-1.2-14.42s-.13-1.13-.74-.2a12.6 12.6 0 0 0-1.03 3.48 59.4 59.4 0 0 0-10.96.3c-.7-2.4-1.9-3.49-2.47-3.2-.58.28-.64 2.86-.64 2.86l-.29 12.35a121 121 0 0 1 17.33-1.17"/><path fill="#e55645" d="M38.78 39.22c.11-.93.17-2.17.2-3.54l-6.96 1.9a54 54 0 0 1-6.67 1.54l.95 4.36c0 .1 0 .2.06.29a27.5 27.5 0 0 0 4.07 2.22 36 36 0 0 0 5.88-3.6v.05a13.2 13.2 0 0 0 2.47-3.22"/><path fill="#000" d="M27.37 12.26c-.05-.08.85.6 1.2.8.35.22.52.37.52.52 0 .15-.22.3-.53.3s-.78-.1-.85-.23c-.07-.12.51 0 .8 0h.25a7 7 0 0 1-1.4-1.39m6.42.1s-.85 1.12-.93 1.17c-.08.05-.15.3.16.25a7 7 0 0 0 1.04-.24c.1-.06.06-.18-.1-.16s-.58.04-.85.1l.72-1.11s.03-.1-.04-.01m-2.69 5.33c.4-.18.73-.48.94-.87.24-.58 0-.8-.38-.88a2.06 2.06 0 0 0-1.5.3c-.33.32-.29.64 0 .87.3.24.6.43.94.58"/><path fill="#f06351" d="M30.79 18.79a1.8 1.8 0 0 1-.4.52c-.24.2-.54.32-.85.33-.47.05-.94-.09-1.32-.38a1.7 1.7 0 0 1-.45-.4.86.86 0 0 0-.31-.21s.64 3.58 2.2 4.16 1.85-.66 1.89-1a5 5 0 0 0-.7-2.82c0-.26-.02-.09-.06-.2"/><path fill="#000" d="M29.33 19.78c-.4-.06-.78-.2-1.13-.41a3 3 0 0 1-.88-.83.13.13 0 0 1 0-.18.12.12 0 0 1 .14-.03.1.1 0 0 1 .04.03 2.75 2.75 0 0 0 1.8 1.14 1.8 1.8 0 0 0 .8-.26c.25-.15.45-.36.6-.6l.12-.17.09.19s.32.66.85.7.9-.37 1.4-1.13a.12.12 0 0 1 .17-.03.13.13 0 0 1 .03.17q-.85 1.28-1.62 1.23a1.3 1.3 0 0 1-.55-.2 1.34 1.34 0 0 1-.4-.44 1.95 1.95 0 0 1-.64.58 1.9 1.9 0 0 1-.82.24"/><path fill="#fdc305" fill-rule="evenodd" d="M31 31.53c1.78 0 3.22-1.47 3.22-3.27s-1.44-3.28-3.21-3.28-3.2 1.47-3.2 3.28 1.43 3.27 3.2 3.27"/><path fill="#111" d="m35.26 25.6-2.68 1.14.99-4.91-6.42 8.51 2.68-1.14-.98 4.92zm-6.32 3.34 3.56-4.72-.7 3.49 1.71-.72-3.58 4.73.7-3.5z"/><path fill="#111" fill-rule="evenodd" d="M27.74 27.65a.97.97 0 0 0 .96-.97.97.97 0 0 0-.96-.98.97.97 0 0 0-.95.98c0 .54.42.97.95.97m5.58 3.55a.68.68 0 0 0 .67-.7c0-.37-.3-.68-.67-.68a.68.68 0 0 0-.68.69c0 .38.3.69.68.69m.82-1.9a.3.3 0 0 0 .3-.3.3.3 0 0 0-.3-.3c-.17 0-.3.13-.3.3s.13.3.3.3"/><path fill="#f06351" d="M39.24 16.57a50 50 0 0 0-4.36 4.55 27.5 27.5 0 0 1-4.54 4.27c-.19-.46-1.4-1.32-1.4-1.32s-2.68-1.88-4.44-3.35a27.5 27.5 0 0 1-2.68-2.62l-1.71-.1a19.38 19.38 0 0 0 10.26 7.72c.73-.13 2.8-1.64 4.35-2.87a50 50 0 0 0 5.13-5.15 5.6 5.6 0 0 0 .98-1.75c-.98.33-1.6.62-1.6.62m-17.05 5.97s-3.26-1.26-4.46-1.6a3.16 3.16 0 0 0-1.79-.23 3.2 3.2 0 0 0-1.63.78 4.4 4.4 0 0 0-1.1 1.52 4.5 4.5 0 0 0-.38 1.84c.18.4.32.83.41 1.27.04.42-1.03.37-1.71.37-.69 0-.79-1.25-.25-2.73a19.9 19.9 0 0 1 1.56-3.26c-4.66 2.48-12.83 8.2-12.83 8.2a38.4 38.4 0 0 1 7 .21c4.5.46 4.28 4.07 4.28 4.07a32.5 32.5 0 0 1 4.82-.96c1.8-.13 1.93 1.85 1.93 1.85l.46 3.36c.69-.76 1.45-1.45 2.27-2.06a5.1 5.1 0 0 1 3.74-1.13z"/><path d="M73 16h101v18h-101z"/><path fill="#111" d="M74.22 32.47a6.8 6.8 0 0 1-1.2-4.34v-6.26a6.9 6.9 0 0 1 1.18-4.38q1.2-1.5 4.08-1.49t3.9 1.31a5.52 5.52 0 0 1 1.14 3.75v1.47h-3.55v-1.59a8 8 0 0 0-.11-1.25 1.4 1.4 0 0 0-.4-.8 1.35 1.35 0 0 0-1-.3 1.3 1.3 0 0 0-.74.1c-.23.12-.42.3-.54.52a4.5 4.5 0 0 0-.3 1.84v7.95a3.9 3.9 0 0 0 .34 1.84 1.29 1.29 0 0 0 1.24.61 1.17 1.17 0 0 0 1.2-.62c.22-.58.3-1.2.27-1.83v-1.67h3.55v1.45a5.94 5.94 0 0 1-1.05 3.85c-.76.92-2.06 1.37-3.91 1.37s-3.3-.5-4.1-1.53m13.94-16.23h4.06l3.43 17.55h-3.38l-.6-3.88h-2.85l-.69 3.86h-3.43zm3.13 11.47-1.08-7.05-1.08 7.05zm7-8.83h-2.78v-2.64h9.19v2.64h-2.75v14.89h-3.67z"/><path fill="#444" d="M111.91 16.24h6.98v1.82h-4.46v5.8h3.61v1.73h-3.61v6.42h4.5v1.76h-7.02zm9.04 0h1.72l5.14 11.64v-11.64h2.1v17.55h-1.6l-5.15-11.97v11.94h-2.13zm11.73 0h6.96v1.82h-4.46v5.8h3.66v1.73h-3.62v6.42h4.47v1.76h-7.01zm9.03 0h3.62a6.12 6.12 0 0 1 4 1.1c.86.72 1.28 1.91 1.28 3.56q0 3.34-2.22 4.08l2.57 8.79h-2.43l-2.36-8.23h-1.95v8.23h-2.51zm3.43 7.52a3.38 3.38 0 0 0 2.32-.63c.27-.31.47-.67.59-1.06a2.9 2.9 0 0 0 .1-1.2 4.8 4.8 0 0 0-.24-1.68 1.58 1.58 0 0 0-.86-.9 4.2 4.2 0 0 0-1.76-.3h-1.1v5.8zm8.85 8.71a7.57 7.57 0 0 1-1.09-4.47v-5.85a11 11 0 0 1 .43-3.34 3.75 3.75 0 0 1 1.5-2.02 5.17 5.17 0 0 1 2.87-.7 4.6 4.6 0 0 1 1.94.23 4.5 4.5 0 0 1 1.65 1 5.74 5.74 0 0 1 1.1 3.88v.65h-2.36v-.54a9.3 9.3 0 0 0-.16-1.94 1.66 1.66 0 0 0-.65-1.03 2.63 2.63 0 0 0-1.47-.34 2.2 2.2 0 0 0-1.55.46 2.12 2.12 0 0 0-.66 1.24 12 12 0 0 0-.15 2.08v6.51a6.1 6.1 0 0 0 .5 2.9c.24.27.53.5.87.65a2.49 2.49 0 0 0 2.13-.04c.33-.17.62-.4.84-.7a6.6 6.6 0 0 0 .52-3.04v-1.24h-2.28v-1.73h4.55v8.68h-1.56l-.24-2.02a3.1 3.1 0 0 1-1.2 1.66 3.22 3.22 0 0 1-2 .57 4.1 4.1 0 0 1-1.97-.31 4 4 0 0 1-1.56-1.2m13.74-4.89-3.88-11.34h2.33l2.75 8.46 2.71-8.46h2.36l-3.86 11.34v6.19h-2.4z"/></svg>