<svg xmlns="http://www.w3.org/2000/svg"><style>:root svg:not(:target){display:none}</style><svg fill="none" viewBox="0 0 27 34" id="academy_logo-academy"><path fill="#666" d="m13.64.02-.14-.02-13.5 1.4v24.61l13.5 7.99 13.5-7.99v-24.6zm11.6 25-11.74 6.94-11.73-6.95v-10.08l11.68 6.92.02 1.25-8.02-4.74v1.22l8.04 4.81.02 1.29-8.05-4.76v1.22l8.04 4.81 8.12-4.83v-5.21l3.62-2.15zm0-11.57-3.23 1.88-1.48.88-7.06-4.19-.01 1.22 6.04 3.58-.06.03-.13.07-.86.5-4.98-2.95-.01 1.22 3.93 2.33-.93.61-.02.01-2.97-1.74-.01 1.23 1.94 1.13-1.98 1.19-11.62-6.87 11.64-6.96zm0-1.22-11.8-6.92-11.67 6.91v-9.23l11.73-1.23 11.73 1.23z"></path></svg><svg fill="none" viewBox="0 0 113 20" id="academy_text-academy"><path fill="#444" d="M10.75 4.73v11.46h-1.55v-5.21h-6.18v5.21h-1.56v-11.46h1.56v5.11h6.18v-5.11zm10.69 1.3h-3.72v10.16h-1.54v-10.16h-3.72v-1.3h8.98zm13.62-1.3v11.46h-1.36v-8.42l.01-.36.03-.4-3.93 7.17q-.19.36-.56.36h-.23q-.37 0-.56-.36l-4.01-7.2q.05.43.05.79v8.42h-1.36v-11.46h1.14q.2 0 .32.04.11.04.22.22l3.96 7.06q.1.19.18.4.1.2.18.42l.16-.42.2-.41 3.88-7.05q.1-.18.21-.22.12-.04.33-.04zm9.44 10.16v1.3h-6.5v-11.46h1.54v10.16zm10.88-2.95-1.8-4.67a10 10 0 0 1-.34-1.07 9 9 0 0 1-.34 1.08l-1.8 4.66zm3.23 4.25h-1.2a.52.52 0 0 1-.33-.1.64.64 0 0 1-.2-.27l-1.07-2.76h-5.14l-1.07 2.76a.56.56 0 0 1-.19.26.5.5 0 0 1-.33.11h-1.2l4.58-11.46h1.57zm6.6-6.66a.6.6 0 0 1-.13.13.3.3 0 0 1-.18.05.5.5 0 0 1-.26-.1 4 4 0 0 0-.36-.22 2.6 2.6 0 0 0-.52-.21 2.4 2.4 0 0 0-.76-.1q-.6 0-1.05.2a2 2 0 0 0-.77.62q-.3.4-.46.96a5 5 0 0 0-.15 1.28q0 .73.16 1.3.17.58.48.97.3.38.74.59.44.2.98.2.52 0 .86-.12.34-.13.55-.28a5 5 0 0 0 .37-.27.47.47 0 0 1 .3-.13q.17 0 .27.14l.4.52a2.8 2.8 0 0 1-.6.56 3.8 3.8 0 0 1-.73.39 4 4 0 0 1-.8.22q-.43.07-.87.07-.76 0-1.42-.28a3.25 3.25 0 0 1-1.13-.8 3.85 3.85 0 0 1-.75-1.32q-.27-.77-.27-1.76 0-.9.25-1.68.25-.76.73-1.32a3.4 3.4 0 0 1 1.2-.87q.7-.31 1.63-.31.85 0 1.5.28.66.27 1.16.78zm6.39 3.01q-.99.04-1.68.16t-1.13.32q-.43.2-.63.48a1.03 1.03 0 0 0-.2.6q0 .32.11.56.1.23.28.38.18.14.42.22.25.06.53.06.38 0 .69-.07.31-.08.58-.23.28-.14.53-.34.26-.2.5-.46zm-4.6-3.3q.67-.66 1.45-.98a4.5 4.5 0 0 1 1.72-.32q.68 0 1.2.23t.9.62.54.97.18 1.25v5.18h-.63a.65.65 0 0 1-.32-.06q-.11-.07-.18-.27l-.16-.77a9 9 0 0 1-.62.53q-.3.22-.64.38a3.5 3.5 0 0 1-.72.23 3.7 3.7 0 0 1-.84.09q-.47 0-.89-.13a2.2 2.2 0 0 1-.73-.4 1.9 1.9 0 0 1-.49-.66 2.4 2.4 0 0 1-.17-.96q0-.48.26-.92.27-.45.86-.8.6-.34 1.54-.55.95-.23 2.34-.26v-.63q0-.95-.41-1.43-.4-.48-1.2-.48-.52 0-.88.13-.35.13-.62.3l-.44.3a.64.64 0 0 1-.37.12.43.43 0 0 1-.25-.07.8.8 0 0 1-.18-.2zm13.44.78q-.4-.54-.86-.75a2.4 2.4 0 0 0-1.04-.21q-1.13 0-1.74.8-.6.81-.6 2.3 0 .8.13 1.37.13.56.4.93.26.36.64.52t.88.17q.7 0 1.22-.32.53-.32.97-.9zm1.42-5.61v11.78h-.84q-.3 0-.39-.3l-.13-.98a4.4 4.4 0 0 1-1.18 1.01q-.66.38-1.54.38-.7 0-1.26-.26a2.66 2.66 0 0 1-.97-.8q-.4-.51-.61-1.29t-.22-1.78q0-.9.24-1.67.24-.77.69-1.34a3.2 3.2 0 0 1 1.1-.89 3.25 3.25 0 0 1 1.47-.33q.74 0 1.27.26.53.25.95.7v-4.5zm7.68 6.85q0-.5-.15-.9a1.9 1.9 0 0 0-.4-.72 1.7 1.7 0 0 0-.65-.46 2.2 2.2 0 0 0-.88-.17q-1.02 0-1.62.6-.6.59-.74 1.65zm1.15 3.8q-.27.32-.63.56a4 4 0 0 1-.8.38 4.7 4.7 0 0 1-.86.22q-.45.08-.89.08-.84 0-1.55-.28a3.5 3.5 0 0 1-1.22-.83 3.9 3.9 0 0 1-.8-1.36q-.3-.8-.3-1.85 0-.85.26-1.59a3.7 3.7 0 0 1 .76-1.27 3.4 3.4 0 0 1 1.19-.85 3.9 3.9 0 0 1 1.58-.31q.73 0 1.35.25.62.24 1.07.7.45.46.71 1.14.26.67.26 1.53 0 .34-.08.45t-.27.11h-5.41q.02.77.2 1.34.2.57.53.95.34.38.8.57a2.8 2.8 0 0 0 1.04.18q.54 0 .92-.12a4.6 4.6 0 0 0 1.14-.53q.19-.13.33-.13.17 0 .27.14zm1.88 1.13v-8.1h.85q.3 0 .38.3l.1.83q.45-.56 1-.9a2.4 2.4 0 0 1 1.3-.36q.82 0 1.33.46.5.45.73 1.23.18-.44.45-.76a2.65 2.65 0 0 1 1.35-.83q.4-.1.8-.1.63 0 1.13.2.5.2.85.6.35.4.53.97.19.57.19 1.3v5.16h-1.43v-5.16q0-.95-.42-1.44-.42-.5-1.2-.5-.35 0-.67.13-.31.12-.55.36t-.39.61q-.13.36-.13.84v5.16h-1.44v-5.16q0-.97-.39-1.45-.4-.48-1.14-.48a1.77 1.77 0 0 0-.98.28 3.2 3.2 0 0 0-.82.77v6.04zm19.94-8.1-4.52 10.5a.7.7 0 0 1-.18.25q-.1.1-.33.1h-1.06l1.48-3.22-3.34-7.63h1.23a.4.4 0 0 1 .29.1.45.45 0 0 1 .15.2l2.17 5.1q.13.33.22.7.1-.37.24-.71l2.1-5.1a.44.44 0 0 1 .16-.2.44.44 0 0 1 .26-.1z"></path></svg><svg viewBox="0 0 18.056 19.091" fill="none" id="menu_menu-close"><g stroke="#000" stroke-width="1.5"><path transform="matrix(.68659 -.72705 .68659 .72705 .515 18.545)" d="M0 0h24.76"></path><path transform="matrix(.68659 .72705 -.68659 .72705 .543 .545)" d="M0 0h24.76"></path></g></svg><svg viewBox="0 0 24 24" fill="none" id="menu_menu-open"><path d="M0 0h24v24h-24z"></path><path stroke="#000" stroke-width="2" d="M0 3h24m-24 8h24m-24 8h24"></path></svg><svg viewBox="0 0 28 22" fill="none" id="social_telegram"><path fill-rule="evenodd" clip-rule="evenodd" d="M23.46 3.15c.18.15.27.38.23.61l-2.63 15.76a.66.66 0 0 1-1.01.44l-7.88-5.25a.66.66 0 0 1-.15-.96l2.61-3.26-4.36 2.9a.66.66 0 0 1-.65.05l-5.26-2.63a.66.66 0 0 1 .08-1.2l18.38-6.57a.66.66 0 0 1 .64.11Zm-17.13 7.17 3.53 1.77 7.56-5.04a.66.66 0 0 1 .88.96l-4.8 6 6.43 4.3 2.28-13.66-15.88 5.67Z" fill="#666"></path></svg><svg viewBox="0 0 28 22" fill="none" id="social_vkontakte"><path d="M1 5.34c0-.86.52-1.32 1.55-1.38l3.97.02c.26 0 .44.13.53.38.4 1.26.86 2.34 1.37 3.25.5.92 1.17 1.97 1.99 3.16.07.15.18.23.34.23.13 0 .22-.06.3-.18l.07-.28.03-4.35c0-.3-.07-.5-.23-.6-.15-.1-.43-.18-.83-.23-.32-.05-.48-.23-.48-.55 0-.07 0-.12.02-.15.38-1.09 1.44-1.63 3.2-1.63l1.5-.03c.67 0 1.23.16 1.67.48.44.32.67.82.67 1.5v5.72c.12.08.24.12.34.12.27 0 .5-.15.7-.45 1.95-2.58 3-4.31 3.17-5.18a.3.3 0 0 1 .05-.13c.12-.25.33-.47.61-.65.29-.19.53-.31.75-.38a.55.55 0 0 1 .24-.05h4.13l.26.03c.36 0 .63.16.83.47.07.1.12.21.15.33a2.4 2.4 0 0 1 .06.55v.18a6.11 6.11 0 0 1-.94 2.2 23.4 23.4 0 0 1-1.93 2.53c-.79.9-1.27 1.5-1.47 1.78a.93.93 0 0 0-.24.56c0 .13.07.28.21.45l3.9 4.63c.2.26.31.56.31.88 0 .38-.16.7-.48.95-.32.25-.7.4-1.14.43l-.46.02h-4.04c-.02 0-.06 0-.11.02a.86.86 0 0 1-.1.01c-.4 0-.76-.16-1.1-.48-.12-.13-.96-1.12-2.5-2.97a1.39 1.39 0 0 0-.38-.32 38.47 38.47 0 0 0-.53 2.24l-.08.42a1.4 1.4 0 0 1-1.12 1.06l-.37.02h-2.61c-1.48 0-2.95-.63-4.41-1.9a19.3 19.3 0 0 1-3.96-4.95 47.51 47.51 0 0 1-3.28-7.05 1.92 1.92 0 0 1-.13-.73Zm16.01 6.51c-.37 0-.7-.1-1.01-.29a.9.9 0 0 1-.45-.79v-5.78c0-.34-.1-.58-.27-.72-.18-.14-.49-.21-.93-.21l-1.52.05c-.76 0-1.34.12-1.73.37.78.36 1.17.93 1.17 1.71v4.43a1.5 1.5 0 0 1-.53 1.04 1.6 1.6 0 0 1-1.07.42c-.53 0-.94-.24-1.22-.73a26.16 26.16 0 0 1-3.1-5.63l-.23-.66-3.55-.02c-.23 0-.36.01-.38.03-.03.03-.04.1-.04.22 0 .15.01.3.05.48l.56 1.4c1.49 3.64 3.11 6.51 4.86 8.6 1.75 2.1 3.47 3.15 5.16 3.15h2.66c.1 0 .19-.03.24-.09.05-.06.1-.17.13-.34l.06-.25.5-2.21c.15-.3.27-.5.38-.6.2-.2.42-.28.69-.28.43 0 .86.24 1.3.73l2.27 2.71c.14.22.3.33.45.33h4.4c.53 0 .8-.13.8-.38a.47.47 0 0 0-.08-.25l-3.87-4.55c-.3-.35-.45-.73-.45-1.13 0-.4.14-.8.43-1.16.23-.34.68-.9 1.34-1.67.67-.78 1.25-1.51 1.75-2.19.5-.68.82-1.3.98-1.85l.08-.33a.37.37 0 0 1-.02-.16.54.54 0 0 0-.03-.19h-4.18c-.27.1-.48.25-.64.45l-.16.48c-.45 1.16-1.6 2.94-3.5 5.36-.36.33-.8.5-1.3.5Z" fill="#666"></path></svg><svg viewBox="0 0 28 22" fill="none" id="social_youtube"><path d="m17.85 10.8-5.24-3.5a.65.65 0 0 0-1.01.55v6.98a.65.65 0 0 0 1.01.54l5.24-3.49a.65.65 0 0 0 0-1.09Zm-4.94 2.8v-4.53l3.4 2.27-3.4 2.27Zm12.48-8.56a2.4 2.4 0 0 0-1.45-1.63c-3.72-1.43-9.69-1.41-9.94-1.41s-6.22-.02-9.94 1.4a2.4 2.4 0 0 0-1.45 1.64 25.32 25.32 0 0 0-.61 6.3c0 3.26.33 5.22.61 6.3a2.4 2.4 0 0 0 1.45 1.63c3.72 1.43 9.69 1.4 9.94 1.4h.08c.75 0 6.31-.04 9.86-1.4a2.4 2.4 0 0 0 1.45-1.64c.28-1.07.61-3.03.61-6.3 0-3.25-.33-5.22-.61-6.29Zm-1.27 12.27a1.1 1.1 0 0 1-.65.74c-3.5 1.34-9.4 1.32-9.47 1.32-.07 0-5.98.02-9.47-1.32a1.09 1.09 0 0 1-.65-.74c-.27-1-.57-2.85-.57-5.97 0-3.12.3-4.97.57-5.97a1.1 1.1 0 0 1 .65-.74c3.5-1.34 9.4-1.32 9.47-1.32.07 0 5.98-.02 9.47 1.32a1.1 1.1 0 0 1 .65.74c.27 1 .57 2.85.57 5.97 0 3.12-.3 4.96-.57 5.97Z" fill="#666"></path></svg></svg>