<svg viewBox="0 0 78 80.033" xmlns="http://www.w3.org/2000/svg" fill="none"><path d="M0 0h78v80.03h-78z"/><path d="M64.02 34.73h-49.99a3.18 3.18 0 0 1-3.18-3.16v-9.48a3.18 3.18 0 0 1 3.18-3.16h49.98a3.17 3.17 0 0 1 3.19 3.16v9.48a3.17 3.17 0 0 1-3.18 3.16Zm-49.99-13.38c-.4 0-.74.34-.74.74v9.48c0 .4.33.73.74.73h49.98c.41 0 .75-.33.75-.73v-9.48c0-.4-.34-.74-.75-.74h-49.98Z" fill="#FFF"/><path d="M57.04 67.18h-36.04a6.11 6.11 0 0 1-6.13-6.1v-27.56a1.22 1.22 0 1 1 2.44 0v27.57a3.68 3.68 0 0 0 3.69 3.66h36.04a3.68 3.68 0 0 0 3.7-3.66v-27.57a1.22 1.22 0 1 1 2.44 0l-.01 27.57a6.11 6.11 0 0 1-6.13 6.09Z" fill="#FFF"/><path d="M39.02 67.18c-.67 0-1.22-.55-1.22-1.21v-32.45a1.22 1.22 0 1 1 2.44 0v32.44c0 .67-.54 1.22-1.22 1.22Z" fill="#FFF"/><g fill="#FFF"><path d="M23.81 21.35a7.81 7.81 0 0 1-3.17-10.6 7.9 7.9 0 0 1 10.66-3.16c5.82 3.13 8.96 11.87 9.09 12.24l-2.3.8c-.03-.08-2.96-8.23-7.95-10.9a5.45 5.45 0 0 0-7.36 2.17 5.4 5.4 0 0 0 2.2 7.32l-1.17 2.13Z"/><path d="m54.23 21.35-1.16-2.13a5.38 5.38 0 0 0-1.03-9.92 5.42 5.42 0 0 0-4.14.42c-4.98 2.68-7.91 10.83-7.94 10.9l-2.3-.8c.13-.37 3.27-9.1 9.08-12.23a7.86 7.86 0 0 1 10.67 3.16 7.79 7.79 0 0 1-3.17 10.6Z"/></g><path d="M61.95 50.95h-45.86c-.67 0-1.22-.54-1.22-1.21 0-.67.55-1.21 1.22-1.21h45.86c.67 0 1.22.54 1.22 1.21 0 .67-.55 1.21-1.22 1.21Z" fill="#FFF"/></svg>