<svg xmlns="http://www.w3.org/2000/svg" fill="none" viewBox="0 0 190 38"><g clip-path="url(#a)"><path fill="#fdc305" d="M6.01 20.93v-2.28a139 139 0 0 1 19.98-1.34c0 .6 0 1.22-.06 1.83a24.9 24.9 0 0 1 5.94-1.83 16.77 16.77 0 0 0-6.77-8.29 16.25 16.25 0 0 0-10.3-2.4c-3.6.38-6.98 1.95-9.62 4.47a16.95 16.95 0 0 0-5 9.51zm20.97 3.55c-1.15 1.3-1.38 1.21-1.38 3.49v9.27a16.7 16.7 0 0 0 5.43-6.05 17.1 17.1 0 0 0 1.97-7.95 17.9 17.9 0 0 0-.32-3.14 33 33 0 0 0-5.7 4.38m-20.68 1.5s-3.76-1.45-5.14-1.84a8 8 0 0 0-1.16-.28 17.07 17.07 0 0 0 2.46 8.23 16.63 16.63 0 0 0 6.14 5.91z"/><path fill="#f06351" d="M26.04 17.3a92.5 92.5 0 0 0-1.39-16.64s-.14-1.3-.88-.25a14.6 14.6 0 0 0-1.19 3.98 68.3 68.3 0 0 0-12.65.35c-.78-2.72-2.16-3.98-2.82-3.73-.66.25-.71 3.34-.71 3.34l-.33 14.25a139 139 0 0 1 19.97-1.3"/><path fill="#000" d="M12.29 14.14c0-.09 1 .7 1.4.93.4.25.6.43.6.6s-.27.34-.62.34c-.36 0-.9-.12-1-.27h1.22a8.3 8.3 0 0 1-1.6-1.6m7.4.12-1.07 1.34c0 .06-.17.35.18.3q.61-.09 1.2-.29c.11 0 .08-.2-.1-.17-.18.02-.69.05-1 .11l.84-1.27s.07-.13-.04-.02m-3.11 6.15c.46-.2.84-.56 1.08-1.01.28-.66 0-.92-.44-1.01a2.37 2.37 0 0 0-1.72.34c-.39.37-.34.73-.05 1.01q.52.4 1.13.67"/><path fill="#f06351" d="M16.2 21.67c-.12.23-.27.44-.46.6a1.7 1.7 0 0 1-1 .4 2.1 2.1 0 0 1-1.45-.44 2.3 2.3 0 0 1-.52-.45 1.1 1.1 0 0 0-.36-.26s.74 4.14 2.55 4.8c1.8.66 2.12-.76 2.17-1.14a5.76 5.76 0 0 0-.8-3.26c-.03-.32-.04-.12-.14-.25"/><path fill="#000" d="M14.57 22.82a3.4 3.4 0 0 1-1.3-.47 3.4 3.4 0 0 1-1.04-1 .14.14 0 0 1 .08-.2.14.14 0 0 1 .15.04 3.22 3.22 0 0 0 2.09 1.31 2.04 2.04 0 0 0 1.61-1l.14-.2.1.21s.37.77 1 .8 1.03-.4 1.59-1.28a.14.14 0 0 1 .2 0c.03.02.05.05.06.09a.15.15 0 0 1-.02.1c-.63 1.02-1.25 1.46-1.86 1.42a1.5 1.5 0 0 1-.64-.25 1.56 1.56 0 0 1-.47-.52 2.26 2.26 0 0 1-.74.67c-.3.17-.62.26-.95.28"/><path fill="#f06351" d="M25.99 19.12a59 59 0 0 0-5.02 5.24 31.6 31.6 0 0 1-5.24 4.94c-.22-.54-1.6-1.52-1.6-1.52s-3.1-2.17-5.14-3.86a34 34 0 0 1-3.1-3.03l-1.98-.12a22.38 22.38 0 0 0 11.89 8.9c.85-.15 3.23-1.88 5.02-3.3a58 58 0 0 0 5.88-5.95c.5-.6.88-1.28 1.13-2.02-1.09.4-1.84.72-1.84.72"/></g><g fill="#111" clip-path="url(#b)"><path d="M90.27 26.54a6.87 6.87 0 0 1-1.27-4.31v-6.38a6.95 6.95 0 0 1 1.19-4.39c.87-1 2.2-1.46 4.18-1.46s3.24.46 4.03 1.3a5.42 5.42 0 0 1 1.19 3.78v1.53h-3.87v-1.76a3.7 3.7 0 0 0-.24-1.54 1.1 1.1 0 0 0-.46-.48 1.16 1.16 0 0 0-.65-.14c-.55 0-.94.15-1.1.54a4.9 4.9 0 0 0-.24 1.7v8.22a3.1 3.1 0 0 0 .32 1.62c.16.38.55.54 1.1.54s.87-.16 1.03-.54c.18-.52.26-1.07.24-1.62v-1.84h3.87v1.54a5.78 5.78 0 0 1-1.19 3.84q-1.18 1.39-4.03 1.39c-1.9-.08-3.32-.54-4.1-1.54m13.98-16.31h4.5l3.33 17.54h-3.64l-.63-3.7h-2.6l-.64 3.7h-3.72zm3.24 11.54-.94-6.85-.95 6.85zm7.35-8.62h-2.68v-2.92h9.4v2.85h-2.69v14.69h-4.03zm13.91-2.92h6.96v1.85h-4.5v5.77h3.63v1.76h-3.64v6.47h4.5v1.77h-7.03v-17.62zm9.01 0h1.74l5.14 11.62v-11.62h2.05v17.54h-1.58l-5.21-12v12h-2.14zm11.3 0h6.96v1.85h-4.5v5.77h3.63v1.76h-3.64v6.47h4.5v1.77h-6.95zm9.01 0h3.64a6.45 6.45 0 0 1 4.03 1.08c.87.69 1.26 1.92 1.26 3.54 0 2.23-.7 3.61-2.21 4.07l2.53 8.77h-2.45l-2.37-8.23h-1.98v8.23h-2.53v-17.46zm3.48 7.54a3.52 3.52 0 0 0 2.3-.62q.7-.57.7-2.3a4.8 4.8 0 0 0-.23-1.7 1.98 1.98 0 0 0-.87-.92 3.7 3.7 0 0 0-1.74-.3h-1.1v5.76h.94zm8.61 8.7a7.6 7.6 0 0 1-1.1-4.47v-5.85a12.3 12.3 0 0 1 .4-3.3 3.92 3.92 0 0 1 1.5-2 5.27 5.27 0 0 1 2.92-.7c1.66 0 2.84.39 3.55 1.23a5.77 5.77 0 0 1 1.11 3.85v.62h-2.37v-.54c0-.65-.05-1.29-.16-1.93a1.53 1.53 0 0 0-.63-1 2.5 2.5 0 0 0-1.5-.38 2.42 2.42 0 0 0-1.58.46 1.73 1.73 0 0 0-.63 1.23 14 14 0 0 0-.16 2.08v6.54a6.8 6.8 0 0 0 .47 2.92c.32.62.95.85 1.9.85a1.9 1.9 0 0 0 1.9-.92 6.9 6.9 0 0 0 .55-3.08v-1.23h-2.3v-1.77h4.59v8.69h-1.58l-.24-2a3.14 3.14 0 0 1-1.22 1.66 3.3 3.3 0 0 1-2.02.57 4.05 4.05 0 0 1-1.9-.35 3.94 3.94 0 0 1-1.5-1.19m13.52-4.85-3.88-11.3h2.38l2.76 8.46 2.69-8.46h2.37l-3.87 11.3v6.16h-2.37v-6.16z"/></g><defs><clipPath id="a"><path fill="#fff" d="M0 0h33v38h-33z"/></clipPath><clipPath id="b"><path fill="#fff" d="M89 10h101v18h-101z"/></clipPath></defs></svg>