<svg xmlns="http://www.w3.org/2000/svg" fill="none" viewBox="0 0 113 20"><path fill="currentColor" d="M10.75 4.73v11.46h-1.55v-5.21h-6.18v5.21h-1.56v-11.46h1.56v5.11h6.18v-5.11zm10.69 1.3h-3.72v10.16h-1.54v-10.16h-3.72v-1.3h8.98zm13.62-1.3v11.46h-1.36v-8.42l.01-.36.03-.4-3.93 7.17q-.19.36-.56.36h-.23q-.37 0-.56-.36l-4.01-7.2q.05.43.05.79v8.42h-1.36v-11.46h1.14q.2 0 .32.04.11.04.22.22l3.96 7.06q.1.19.18.4.1.2.18.42l.16-.42.2-.41 3.88-7.05q.1-.18.21-.22.12-.04.33-.04zm9.44 10.16v1.3h-6.5v-11.46h1.54v10.16zm10.88-2.95-1.8-4.67a10 10 0 0 1-.34-1.07 9 9 0 0 1-.34 1.08l-1.8 4.66zm3.23 4.25h-1.2a.52.52 0 0 1-.33-.1.64.64 0 0 1-.2-.27l-1.07-2.76h-5.14l-1.07 2.76a.56.56 0 0 1-.19.26.5.5 0 0 1-.33.11h-1.2l4.58-11.46h1.57zm6.6-6.66a.6.6 0 0 1-.13.13.3.3 0 0 1-.18.05.5.5 0 0 1-.26-.1 4 4 0 0 0-.36-.22 2.6 2.6 0 0 0-.52-.21 2.4 2.4 0 0 0-.76-.1q-.6 0-1.05.2a2 2 0 0 0-.77.62q-.3.4-.46.96a5 5 0 0 0-.15 1.28q0 .73.16 1.3.17.58.48.97.3.38.74.59.44.2.98.2.52 0 .86-.12.34-.13.55-.28a5 5 0 0 0 .37-.27.47.47 0 0 1 .3-.13q.17 0 .27.14l.4.52a2.8 2.8 0 0 1-.6.56 3.8 3.8 0 0 1-.73.39 4 4 0 0 1-.8.22q-.43.07-.87.07-.76 0-1.42-.28a3.25 3.25 0 0 1-1.13-.8 3.85 3.85 0 0 1-.75-1.32q-.27-.77-.27-1.76 0-.9.25-1.68.25-.76.73-1.32a3.4 3.4 0 0 1 1.2-.87q.7-.31 1.63-.31.85 0 1.5.28.66.27 1.16.78zm6.39 3.01q-.99.04-1.68.16t-1.13.32q-.43.2-.63.48a1.03 1.03 0 0 0-.2.6q0 .32.11.56.1.23.28.38.18.14.42.22.25.06.53.06.38 0 .69-.07.31-.08.58-.23.28-.14.53-.34.26-.2.5-.46zm-4.6-3.3q.67-.66 1.45-.98a4.5 4.5 0 0 1 1.72-.32q.68 0 1.2.23t.9.62.54.97.18 1.25v5.18h-.63a.65.65 0 0 1-.32-.06q-.11-.07-.18-.27l-.16-.77a9 9 0 0 1-.62.53q-.3.22-.64.38a3.5 3.5 0 0 1-.72.23 3.7 3.7 0 0 1-.84.09q-.47 0-.89-.13a2.2 2.2 0 0 1-.73-.4 1.9 1.9 0 0 1-.49-.66 2.4 2.4 0 0 1-.17-.96q0-.48.26-.92.27-.45.86-.8.6-.34 1.54-.55.95-.23 2.34-.26v-.63q0-.95-.41-1.43-.4-.48-1.2-.48-.52 0-.88.13-.35.13-.62.3l-.44.3a.64.64 0 0 1-.37.12.43.43 0 0 1-.25-.07.8.8 0 0 1-.18-.2zm13.44.78q-.4-.54-.86-.75a2.4 2.4 0 0 0-1.04-.21q-1.13 0-1.74.8-.6.81-.6 2.3 0 .8.13 1.37.13.56.4.93.26.36.64.52t.88.17q.7 0 1.22-.32.53-.32.97-.9zm1.42-5.61v11.78h-.84q-.3 0-.39-.3l-.13-.98a4.4 4.4 0 0 1-1.18 1.01q-.66.38-1.54.38-.7 0-1.26-.26a2.66 2.66 0 0 1-.97-.8q-.4-.51-.61-1.29t-.22-1.78q0-.9.24-1.67.24-.77.69-1.34a3.2 3.2 0 0 1 1.1-.89 3.25 3.25 0 0 1 1.47-.33q.74 0 1.27.26.53.25.95.7v-4.5zm7.68 6.85q0-.5-.15-.9a1.9 1.9 0 0 0-.4-.72 1.7 1.7 0 0 0-.65-.46 2.2 2.2 0 0 0-.88-.17q-1.02 0-1.62.6-.6.59-.74 1.65zm1.15 3.8q-.27.32-.63.56a4 4 0 0 1-.8.38 4.7 4.7 0 0 1-.86.22q-.45.08-.89.08-.84 0-1.55-.28a3.5 3.5 0 0 1-1.22-.83 3.9 3.9 0 0 1-.8-1.36q-.3-.8-.3-1.85 0-.85.26-1.59a3.7 3.7 0 0 1 .76-1.27 3.4 3.4 0 0 1 1.19-.85 3.9 3.9 0 0 1 1.58-.31q.73 0 1.35.25.62.24 1.07.7.45.46.71 1.14.26.67.26 1.53 0 .34-.08.45t-.27.11h-5.41q.02.77.2 1.34.2.57.53.95.34.38.8.57a2.8 2.8 0 0 0 1.04.18q.54 0 .92-.12a4.6 4.6 0 0 0 1.14-.53q.19-.13.33-.13.17 0 .27.14zm1.88 1.13v-8.1h.85q.3 0 .38.3l.1.83q.45-.56 1-.9a2.4 2.4 0 0 1 1.3-.36q.82 0 1.33.46.5.45.73 1.23.18-.44.45-.76a2.65 2.65 0 0 1 1.35-.83q.4-.1.8-.1.63 0 1.13.2.5.2.85.6.35.4.53.97.19.57.19 1.3v5.16h-1.43v-5.16q0-.95-.42-1.44-.42-.5-1.2-.5-.35 0-.67.13-.31.12-.55.36t-.39.61q-.13.36-.13.84v5.16h-1.44v-5.16q0-.97-.39-1.45-.4-.48-1.14-.48a1.77 1.77 0 0 0-.98.28 3.2 3.2 0 0 0-.82.77v6.04zm19.94-8.1-4.52 10.5a.7.7 0 0 1-.18.25q-.1.1-.33.1h-1.06l1.48-3.22-3.34-7.63h1.23a.4.4 0 0 1 .29.1.45.45 0 0 1 .15.2l2.17 5.1q.13.33.22.7.1-.37.24-.71l2.1-5.1a.44.44 0 0 1 .16-.2.44.44 0 0 1 .26-.1z"/></svg>